<svg version="1.1" id="Layer_1" xmlns="http://www.w3.org/2000/svg" xmlns:xlink="http://www.w3.org/1999/xlink" x="0px" y="0px"
	 width="100%" viewBox="0 0 1024 1024" enable-background="new 0 0 1024 1024" xml:space="preserve">
<path fill="#000000" opacity="1.000000" stroke="none" 
	d="
M298.937836,574.067017 
	C323.051819,600.136047 347.557953,625.336731 372.352844,650.256165 
	C374.578186,652.492737 376.955170,656.574646 380.313538,655.006653 
	C383.267609,653.627441 382.816772,649.237488 382.785919,645.905212 
	C382.761230,643.239014 382.359375,640.506165 382.801788,637.918579 
	C384.314240,629.072388 380.185699,623.100525 374.297180,616.945557 
	C338.589417,579.622253 301.765472,543.378479 266.583832,505.550079 
	C243.944992,481.208130 241.583374,442.466858 260.238800,414.881866 
	C271.718781,397.906891 287.791718,387.206238 305.609039,378.417816 
	C340.852325,361.033997 375.965881,343.378174 411.412140,326.418091 
	C433.031006,316.074097 454.304993,304.912018 476.764587,296.396973 
	C501.832977,286.892883 527.760986,285.909821 554.027527,289.224365 
	C578.150696,292.268463 601.052429,298.576172 620.201233,314.659454 
	C627.344360,320.658997 634.721863,326.381134 641.823853,332.427826 
	C668.207336,354.891113 694.533264,377.422241 720.847412,399.966797 
	C724.894348,403.434021 728.851135,407.017120 732.695679,410.707062 
	C736.583313,414.438354 739.810364,418.656769 741.000977,424.100433 
	C741.473450,426.260559 742.679016,428.056854 743.818298,429.908417 
	C758.545593,453.843658 754.736572,485.803833 734.971924,505.936615 
	C727.990051,513.048462 719.964661,518.570435 711.161072,523.086548 
	C679.451538,539.352966 647.845154,555.823914 616.013977,571.848572 
	C575.408264,592.290527 534.636902,612.403870 493.899994,632.584351 
	C486.738739,636.131897 479.387207,639.294189 472.140686,642.671082 
	C467.285828,644.933533 466.600464,647.115906 470.391968,650.976440 
	C476.218567,656.909180 482.525818,662.367859 488.569397,668.090759 
	C490.429901,669.852600 492.107666,669.064819 494.042603,668.282715 
	C514.771118,659.903748 534.512695,649.490662 554.298767,639.166199 
	C577.769409,626.919006 601.262024,614.713928 624.713135,602.429565 
	C655.985168,586.048462 687.202942,569.563965 718.493958,553.219421 
	C728.838623,547.816101 739.069092,542.242493 748.653137,535.561829 
	C750.903320,533.993286 752.969116,532.160400 754.807373,530.008667 
	C746.273499,534.811890 738.939087,541.675903 728.742432,544.694153 
	C729.092102,541.223267 731.446228,540.356995 733.249451,539.181885 
	C745.274536,531.345337 757.101196,523.278503 765.930237,511.663818 
	C777.481445,496.468170 784.802856,479.604248 786.045105,460.353699 
	C786.179443,458.272644 785.866943,455.939087 788.411804,454.512329 
	C790.978882,455.921265 790.866638,458.567810 791.233826,460.903473 
	C792.750244,470.549896 791.573608,480.179169 790.944763,489.810791 
	C789.503479,511.885162 787.009277,533.874329 785.949951,555.988586 
	C785.511536,565.140442 786.355408,573.546875 789.761475,582.219421 
	C794.320740,593.828430 796.332703,606.267334 798.263550,618.628296 
	C798.924744,622.861084 797.782104,626.583557 794.709473,629.006714 
	C787.591431,634.620300 784.823364,642.643494 781.695129,650.521912 
	C777.956787,659.936829 772.411133,667.311218 762.973267,672.205566 
	C744.180969,681.950867 726.482422,693.372498 710.961914,708.106934 
	C705.089050,713.682373 698.585327,718.830383 690.199280,721.467102 
	C683.716003,723.505493 678.137939,728.325745 672.029602,731.676147 
	C662.739929,736.771484 653.186218,741.163208 642.944580,744.233521 
	C630.873657,747.852234 619.446838,753.006653 608.944214,760.290222 
	C598.257996,767.700989 587.630493,775.108643 578.498718,784.420654 
	C575.595703,787.380981 572.984253,790.639526 570.366272,793.864624 
	C563.526794,802.290100 555.132080,808.398865 544.289856,810.154419 
	C536.174988,811.468384 528.307678,810.193176 523.573547,802.533264 
	C518.679138,794.614075 520.092102,786.217590 523.547607,778.092468 
	C524.028687,776.961365 525.169861,775.833923 526.289551,775.295288 
	C535.487366,770.870422 536.162170,760.975403 540.940552,753.789124 
	C538.626770,751.145813 536.122986,751.928345 534.120117,752.678650 
	C519.202148,758.267517 503.567810,759.104553 487.925171,760.043518 
	C483.944458,760.282532 479.924896,760.585938 476.027252,761.374146 
	C459.075378,764.802429 442.541840,761.526367 426.125031,758.041992 
	C421.222168,757.001404 418.453735,758.106262 416.181915,761.997620 
	C410.718353,771.356018 406.017914,781.109314 401.329865,790.867615 
	C400.570587,792.448059 400.425720,794.486572 397.163086,795.226990 
	C393.033752,770.287964 396.264221,745.118103 393.001587,720.316711 
	C393.001587,745.073059 393.001587,769.829346 393.001587,794.585632 
	C388.894348,791.162842 386.580688,787.606262 386.729767,782.449158 
	C387.336487,761.456909 386.282257,740.476379 385.751221,719.493469 
	C385.720642,718.286072 386.227173,716.894104 385.026978,715.758850 
	C383.890106,717.308777 384.386658,719.006958 384.378784,720.572998 
	C384.322632,731.737793 384.433868,742.904114 384.288086,754.067261 
	C384.251373,756.881104 385.752228,760.765381 382.296753,762.157227 
	C379.187988,763.409241 377.346863,759.931580 375.502502,758.009338 
	C362.355438,744.307861 349.242981,730.569702 336.327881,716.649963 
	C316.385193,695.156006 296.581329,673.532898 276.786774,651.902161 
	C273.178558,647.959229 269.011536,647.159851 264.101562,648.594299 
	C253.992554,651.547546 250.369125,650.148499 245.489578,640.787903 
	C241.015213,632.204590 238.521255,622.761475 234.559464,613.977844 
	C225.468674,593.822998 225.295242,572.243164 223.752747,550.884460 
	C222.410828,532.302979 221.107574,513.723206 219.108734,495.198273 
	C218.707291,491.477936 218.299149,487.742310 219.329727,484.166565 
	C221.380890,484.080322 221.860703,485.276703 222.366974,486.255463 
	C230.599518,502.171112 242.853897,514.942810 254.954041,527.807495 
	C269.450653,543.220093 284.108521,558.480957 298.937836,574.067017 
M700.651733,422.895874 
	C696.798584,406.629669 687.884338,393.186005 676.125183,381.836243 
	C660.742188,366.988922 643.958496,353.808807 624.536682,344.437317 
	C603.379578,334.228577 581.169861,327.850616 557.773987,324.994812 
	C532.363831,321.893097 507.317108,322.978424 482.448029,328.791138 
	C468.570648,332.034760 455.725464,337.962219 442.985626,344.195251 
	C423.103149,353.922974 403.107635,363.419495 383.187592,373.070862 
	C370.308746,379.310699 357.554199,385.811523 344.607056,391.904541 
	C330.574066,398.508575 317.046692,405.339691 306.766876,417.818970 
	C288.309143,440.225952 283.337616,464.575104 293.316376,491.884460 
	C293.707214,492.954193 294.163666,494.378601 295.018524,494.835938 
	C299.171936,497.058014 299.936096,501.637054 301.557434,505.168671 
	C303.374695,509.127197 305.095795,512.968201 307.903931,516.290161 
	C326.049530,537.756104 349.803741,549.747925 376.465576,556.782043 
	C379.780457,557.656616 383.167419,558.564636 386.435516,557.644775 
	C387.437592,555.719360 384.646240,555.559875 385.323151,553.942200 
	C387.310852,553.942200 389.298279,553.876587 391.279572,553.958862 
	C393.749023,554.061401 394.490173,555.252869 394.439056,557.859131 
	C393.622772,599.502747 392.927277,641.148743 392.263153,682.795166 
	C392.230774,684.824951 391.424469,687.121216 393.331940,688.884521 
	C394.788696,688.738525 395.685883,687.893860 395.634247,686.634521 
	C395.501404,683.395081 397.280640,680.955750 398.704834,678.334595 
	C416.999176,644.664246 436.874634,611.902588 455.842499,578.621948 
	C459.846619,571.596436 463.584991,566.952209 472.178314,570.172607 
	C472.378510,570.247559 472.527954,570.457886 472.722839,570.623596 
	C470.721039,571.424500 467.961853,569.992981 466.283020,573.251892 
	C473.398315,576.037537 480.339142,574.438416 487.318634,573.926147 
	C485.777008,573.202454 484.235352,572.478699 482.693695,571.755005 
	C485.811890,570.630432 488.747314,570.544861 491.676178,570.647095 
	C499.194916,570.909668 506.627258,570.004150 514.066772,569.143860 
	C530.757263,567.213745 545.764709,560.272522 560.539185,552.985596 
	C592.208740,537.365906 623.675781,521.336060 655.237854,505.498199 
	C662.998657,501.603851 670.554871,497.412842 677.264832,491.818726 
	C698.826660,473.842499 707.277588,451.358887 700.651733,422.895874 
M477.015991,744.197021 
	C479.298767,747.356018 482.928131,749.843567 485.756287,746.848022 
	C489.323975,743.069336 493.951996,739.328979 494.025055,733.185364 
	C494.118134,725.363403 494.234009,717.540039 492.767426,709.803772 
	C492.007690,705.796082 490.755066,702.028137 487.085022,699.672852 
	C485.303497,698.529541 483.330414,697.779297 481.804260,699.974548 
	C479.064606,703.915344 475.596436,707.627869 475.337036,712.707825 
	C474.811554,722.998474 474.235809,733.320190 477.015991,744.197021 
M554.630432,563.066345 
	C555.408447,562.771973 556.221313,562.546570 556.959412,562.173157 
	C593.931152,543.465698 630.959412,524.868164 667.817871,505.939880 
	C676.924866,501.263123 684.809937,494.728455 690.964294,486.365356 
	C684.876282,492.549622 678.288147,498.212372 670.660034,502.303894 
	C633.249451,522.369934 594.854919,540.496765 556.976257,559.642761 
	C552.749817,561.779053 548.414673,563.700134 544.129944,565.721069 
	C548.026550,566.841187 550.671936,564.074219 554.630432,563.066345 
M347.035553,361.602081 
	C330.945038,369.253418 314.897278,376.985931 299.265381,385.508209 
	C299.479065,385.918701 299.692719,386.329224 299.906372,386.739746 
	C326.085266,373.901428 352.264160,361.063110 378.443024,348.224792 
	C378.266693,347.861938 378.090363,347.499115 377.914001,347.136261 
	C367.841583,351.840668 357.769165,356.545044 347.035553,361.602081 
M277.743073,477.982056 
	C279.229919,479.196472 281.003540,479.340881 282.073761,477.863037 
	C283.460876,475.947632 283.536133,473.700165 281.798828,471.665375 
	C278.650238,472.447632 277.204376,474.259735 277.743073,477.982056 
z"/>
<path fill="#000000" opacity="1.000000" stroke="none" 
	d="
M523.875000,214.020020 
	C531.175049,212.523819 537.726562,210.021408 544.292908,207.632980 
	C549.471252,205.749374 551.334595,202.372986 550.945068,196.122086 
	C550.569519,190.094315 550.330750,184.159546 552.994263,178.485352 
	C554.623108,175.015244 557.064636,172.789444 560.609070,171.057495 
	C571.288635,165.839111 582.351807,165.802902 593.769958,167.188110 
	C601.844238,168.167648 609.991699,168.789871 618.121338,168.999954 
	C627.076477,169.231369 636.077881,170.276962 645.007996,168.947311 
	C655.733948,167.350266 664.196411,172.050323 671.848450,178.515640 
	C682.626099,187.621826 693.516235,196.662888 701.973999,208.164444 
	C703.035706,209.608322 704.416016,211.190781 706.001282,211.818466 
	C719.886841,217.316116 727.859619,229.230316 736.972046,239.930664 
	C739.020325,242.335922 741.298096,244.545090 743.361084,246.938599 
	C755.460449,260.976227 765.028931,276.760681 774.429016,292.622711 
	C777.146912,297.209045 778.158752,302.607178 777.986328,308.052948 
	C777.664185,318.228424 777.501404,328.527618 779.283264,338.459381 
	C781.106995,348.624939 782.571472,359.166168 789.185486,367.984070 
	C793.753174,374.073792 791.311890,383.444977 784.750427,387.101074 
	C780.560364,389.435760 777.643860,392.799164 777.064941,397.554779 
	C776.263245,404.140381 771.110779,406.862030 766.558105,410.077148 
	C764.393250,411.606018 762.468872,409.962311 760.780518,408.514465 
	C748.767273,398.212708 736.780334,387.880035 724.734497,377.616425 
	C695.448853,352.663635 666.108582,327.774963 636.843262,302.798279 
	C616.752014,285.651215 593.372864,276.160309 567.480713,271.921661 
	C554.958496,269.871765 542.456970,268.503326 529.775635,268.005951 
	C500.209686,266.846375 472.203888,273.016541 445.270172,284.838043 
	C440.241974,287.044952 435.119019,289.000488 430.225739,291.555267 
	C426.578278,293.459564 422.701630,294.920837 418.363495,295.101593 
	C414.675018,295.255280 411.609802,296.841644 409.028870,300.036804 
	C404.383820,305.787262 397.244812,308.287537 390.714325,310.713806 
	C382.654388,313.708282 375.585083,318.284119 368.030487,322.059387 
	C358.711243,326.716553 357.378082,326.203979 355.161743,316.104401 
	C354.349060,312.401123 352.522217,309.871216 349.583862,307.642151 
	C338.920654,299.552917 338.266235,289.973633 347.428284,280.005280 
	C353.711029,273.169586 359.074463,265.362366 368.012909,261.442566 
	C376.609009,257.672882 385.405243,254.720367 394.829773,253.905106 
	C401.505280,253.327667 407.960358,251.673233 414.309265,249.594131 
	C418.386597,248.258942 421.801147,246.104843 423.914642,242.142441 
	C426.698181,236.923889 430.328705,232.501572 435.609039,229.474503 
	C438.204468,227.986618 440.166351,225.564468 441.700500,222.948334 
	C447.186737,213.593002 456.034363,210.386551 466.132172,209.988831 
	C474.116425,209.674377 482.127502,209.952225 490.124695,210.086700 
	C495.320496,210.174042 500.406372,211.098328 505.296173,212.886414 
	C511.244385,215.061523 517.265930,215.714935 523.875000,214.020020 
z"/>
<path fill="#000000" opacity="1.000000" stroke="none" 
	d="
M642.337463,591.386292 
	C625.695984,599.869446 609.140137,607.739197 593.125793,616.588684 
	C567.912720,630.521423 541.845581,642.744995 516.240845,655.887512 
	C510.333435,658.919739 503.821564,660.774414 497.335968,662.527954 
	C560.866211,631.159607 622.554504,596.392151 685.828186,564.686401 
	C686.721497,564.238831 687.785339,564.146912 689.019348,566.173218 
	C674.245117,575.762207 657.900940,582.508606 642.337463,591.386292 
z"/>
<path fill="#000000" opacity="1.000000" stroke="none" 
	d="
M701.616577,556.353516 
	C707.375244,554.493225 711.899048,550.495789 717.797058,549.806702 
	C711.889526,554.378174 705.866272,558.661133 698.238342,560.965210 
	C698.501282,558.323425 700.129456,557.607239 701.616577,556.353516 
z"/>
<path fill="#000000" opacity="1.000000" stroke="none" 
	d="
M404.583984,501.630188 
	C402.870148,500.848511 401.441132,500.338928 400.166504,499.572510 
	C390.280701,493.628448 383.363190,485.470825 383.836975,473.405487 
	C384.318329,461.146698 391.189728,452.480408 402.100342,447.417328 
	C416.882233,440.557678 432.186188,440.083710 447.847076,444.549225 
	C462.059113,448.601562 467.899017,458.932648 469.275909,472.468384 
	C470.558258,485.074402 463.956818,495.979004 452.102173,501.298248 
	C436.512512,508.293396 420.721497,507.422943 404.583984,501.630188 
z"/>
<path fill="#000000" opacity="1.000000" stroke="none" 
	d="
M577.717163,392.004272 
	C582.875000,393.795135 587.573242,395.966553 590.586304,400.025513 
	C596.014709,407.338318 599.392456,415.696411 598.122009,424.955048 
	C596.945679,433.528107 591.924988,439.961639 584.294189,444.042419 
	C565.349976,454.173370 546.017212,453.544403 527.411438,443.924957 
	C506.201782,432.959198 505.861328,407.930634 526.322754,395.627136 
	C542.594421,385.842896 559.858093,386.579071 577.717163,392.004272 
z"/>
</svg>